<svg width="64" height="64" viewBox="0 0 64 64" fill="none" xmlns="http://www.w3.org/2000/svg">
<g id="majesticons:basket-2">
<path id="Vector" fill-rule="evenodd" clip-rule="evenodd" d="M25.632 16.224C24.4267 17.896 24 19.984 24 21.3333V24H40V21.3333C40 19.9813 39.5733 17.896 38.3707 16.224C37.264 14.688 35.3973 13.3333 32 13.3333C28.6027 13.3333 26.736 14.688 25.632 16.224ZM45.3333 24V21.3333C45.3333 19.128 44.6933 15.8827 42.6987 13.1093C40.6027 10.2 37.136 8 32 8C26.864 8 23.3973 10.2 21.3013 13.1093C19.3067 15.8827 18.6667 19.128 18.6667 21.3333V24H8C7.29275 24 6.61448 24.281 6.11438 24.781C5.61428 25.2811 5.33333 25.9594 5.33333 26.6667C5.33333 27.3739 5.61428 28.0522 6.11438 28.5523C6.61448 29.0524 7.29275 29.3333 8 29.3333H8.25333L10.68 53.6C10.7461 54.2578 11.0542 54.8675 11.5445 55.311C12.0347 55.7545 12.6722 56 13.3333 56H50.6667C51.3277 56 51.9653 55.7545 52.4555 55.311C52.9458 54.8675 53.2539 54.2578 53.32 53.6L55.7467 29.3333H56C56.7072 29.3333 57.3855 29.0524 57.8856 28.5523C58.3857 28.0522 58.6667 27.3739 58.6667 26.6667C58.6667 25.9594 58.3857 25.2811 57.8856 24.781C57.3855 24.281 56.7072 24 56 24H45.3333ZM24 37.3333C24 36.6261 23.719 35.9478 23.2189 35.4477C22.7189 34.9476 22.0406 34.6667 21.3333 34.6667C20.6261 34.6667 19.9478 34.9476 19.4477 35.4477C18.9476 35.9478 18.6667 36.6261 18.6667 37.3333V42.6667C18.6667 43.3739 18.9476 44.0522 19.4477 44.5523C19.9478 45.0524 20.6261 45.3333 21.3333 45.3333C22.0406 45.3333 22.7189 45.0524 23.2189 44.5523C23.719 44.0522 24 43.3739 24 42.6667V37.3333ZM34.6667 37.3333C34.6667 36.6261 34.3857 35.9478 33.8856 35.4477C33.3855 34.9476 32.7072 34.6667 32 34.6667C31.2928 34.6667 30.6145 34.9476 30.1144 35.4477C29.6143 35.9478 29.3333 36.6261 29.3333 37.3333V42.6667C29.3333 43.3739 29.6143 44.0522 30.1144 44.5523C30.6145 45.0524 31.2928 45.3333 32 45.3333C32.7072 45.3333 33.3855 45.0524 33.8856 44.5523C34.3857 44.0522 34.6667 43.3739 34.6667 42.6667V37.3333ZM45.3333 37.3333C45.3333 36.6261 45.0524 35.9478 44.5523 35.4477C44.0522 34.9476 43.3739 34.6667 42.6667 34.6667C41.9594 34.6667 41.2811 34.9476 40.781 35.4477C40.2809 35.9478 40 36.6261 40 37.3333V42.6667C40 43.3739 40.2809 44.0522 40.781 44.5523C41.2811 45.0524 41.9594 45.3333 42.6667 45.3333C43.3739 45.3333 44.0522 45.0524 44.5523 44.5523C45.0524 44.0522 45.3333 43.3739 45.3333 42.6667V37.3333Z" fill="#465568"/>
<rect x="0.5" y="0.5" width="63" height="63" rx="31.5"/>
</g>
</svg>
