<svg width="64" height="64" viewBox="0 0 64 64" fill="none" xmlns="http://www.w3.org/2000/svg">
<g id="ic:round-business-center">
<path id="Vector" d="M34.6667 42.6667H29.3333C27.8667 42.6667 26.6667 41.4667 26.6667 40H8.02668V50.6667C8.02668 53.6 10.4267 56 13.36 56H50.6667C53.6 56 56 53.6 56 50.6667V40H37.3333C37.3333 41.4667 36.1333 42.6667 34.6667 42.6667ZM53.3333 18.6667H42.6667C42.6667 12.7733 37.8933 8 32 8C26.1067 8 21.3333 12.7733 21.3333 18.6667H10.6667C7.73334 18.6667 5.33334 21.0667 5.33334 24V32C5.33334 34.96 7.70668 37.3333 10.6667 37.3333H26.6667V34.6667C26.6667 33.2 27.8667 32 29.3333 32H34.6667C36.1333 32 37.3333 33.2 37.3333 34.6667V37.3333H53.3333C56.2667 37.3333 58.6667 34.9333 58.6667 32V24C58.6667 21.0667 56.2667 18.6667 53.3333 18.6667ZM26.6667 18.6667C26.6667 15.7333 29.0667 13.3333 32 13.3333C34.9333 13.3333 37.3333 15.7333 37.3333 18.6667H26.64H26.6667Z" fill="#465568"/>
<rect x="0.5" y="0.5" width="63" height="63" rx="31.5"/>
</g>
</svg>
