<svg width="19" height="20" viewBox="0 0 19 20" fill="none" xmlns="http://www.w3.org/2000/svg">
<path id="Vector" d="M7.5 3.25V3.5H11.5V3.25C11.5 2.71957 11.2893 2.21086 10.9142 1.83579C10.5391 1.46071 10.0304 1.25 9.5 1.25C8.96957 1.25 8.46086 1.46071 8.08579 1.83579C7.71071 2.21086 7.5 2.71957 7.5 3.25ZM6.25 3.5V3.25C6.25 2.38805 6.59241 1.5614 7.2019 0.951903C7.8114 0.34241 8.63805 0 9.5 0C10.362 0 11.1886 0.34241 11.7981 0.951903C12.4076 1.5614 12.75 2.38805 12.75 3.25V3.5H18.375C18.5408 3.5 18.6997 3.56585 18.8169 3.68306C18.9342 3.80027 19 3.95924 19 4.125C19 4.29076 18.9342 4.44973 18.8169 4.56694C18.6997 4.68415 18.5408 4.75 18.375 4.75H16.9165L15.9165 16.678C15.8405 17.5838 15.427 18.428 14.7579 19.0433C14.0888 19.6586 13.213 20 12.304 20H6.696C5.7871 19.9999 4.91139 19.6584 4.2424 19.0431C3.57341 18.4279 3.15997 17.5837 3.084 16.678L2.084 4.75H0.625C0.45924 4.75 0.300269 4.68415 0.183058 4.56694C0.065848 4.44973 0 4.29076 0 4.125C0 3.95924 0.065848 3.80027 0.183058 3.68306C0.300269 3.56585 0.45924 3.5 0.625 3.5H6.25ZM8.25 8.125C8.25 8.04292 8.23383 7.96165 8.20243 7.88582C8.17102 7.80999 8.12498 7.74109 8.06694 7.68306C8.00891 7.62502 7.94001 7.57898 7.86418 7.54757C7.78835 7.51617 7.70708 7.5 7.625 7.5C7.54292 7.5 7.46165 7.51617 7.38582 7.54757C7.30999 7.57898 7.24109 7.62502 7.18306 7.68306C7.12502 7.74109 7.07898 7.80999 7.04757 7.88582C7.01617 7.96165 7 8.04292 7 8.125V15.375C7 15.4571 7.01617 15.5383 7.04757 15.6142C7.07898 15.69 7.12502 15.7589 7.18306 15.8169C7.24109 15.875 7.30999 15.921 7.38582 15.9524C7.46165 15.9838 7.54292 16 7.625 16C7.70708 16 7.78835 15.9838 7.86418 15.9524C7.94001 15.921 8.00891 15.875 8.06694 15.8169C8.12498 15.7589 8.17102 15.69 8.20243 15.6142C8.23383 15.5383 8.25 15.4571 8.25 15.375V8.125ZM11.375 7.5C11.03 7.5 10.75 7.78 10.75 8.125V15.375C10.75 15.5408 10.8158 15.6997 10.9331 15.8169C11.0503 15.9342 11.2092 16 11.375 16C11.5408 16 11.6997 15.9342 11.8169 15.8169C11.9342 15.6997 12 15.5408 12 15.375V8.125C12 7.78 11.72 7.5 11.375 7.5Z" fill="#EEEEEE"/>
</svg>
