<svg width="73" height="73" viewBox="0 0 73 73" fill="none" xmlns="http://www.w3.org/2000/svg">
<g id="bi:gift-fill">
<g clip-path="url(#clip0_83_308)">
<path id="Vector" d="M13.9779 11.4389C13.9779 8.43984 15.1693 5.56359 17.2899 3.44292C19.4106 1.32224 22.2869 0.130859 25.2859 0.130859C28.285 0.130859 31.1613 1.32224 33.282 3.44292C35.4026 5.56359 36.594 8.43984 36.594 11.4389C36.594 8.43984 37.7854 5.56359 39.9061 3.44292C42.0267 1.32224 44.903 0.130859 47.9021 0.130859C50.9012 0.130859 53.7774 1.32224 55.8981 3.44292C58.0188 5.56359 59.2102 8.43984 59.2102 11.4389V11.4661C59.2102 11.7827 59.2102 12.6873 59.0383 13.7005H68.2566C69.4562 13.7005 70.6067 14.1771 71.455 15.0254C72.3033 15.8736 72.7798 17.0241 72.7798 18.2238V22.747C72.7798 23.9466 72.3033 25.0971 71.455 25.9454C70.6067 26.7937 69.4562 27.2702 68.2566 27.2702H4.93143C3.7318 27.2702 2.5813 26.7937 1.73303 25.9454C0.884756 25.0971 0.408203 23.9466 0.408203 22.747V18.2238C0.408203 17.0241 0.884756 15.8736 1.73303 15.0254C2.5813 14.1771 3.7318 13.7005 4.93143 13.7005H14.1498C14.0303 12.9618 13.9728 12.2144 13.9779 11.4661V11.4389ZM18.8087 13.7005H32.0708V11.4389C32.0708 10.5479 31.8953 9.66566 31.5543 8.84248C31.2134 8.01931 30.7136 7.27135 30.0836 6.64132C29.4535 6.01129 28.7056 5.51152 27.8824 5.17055C27.0592 4.82958 26.1769 4.65409 25.2859 4.65409C24.395 4.65409 23.5127 4.82958 22.6895 5.17055C21.8663 5.51152 21.1184 6.01129 20.4883 6.64132C19.8583 7.27135 19.3585 8.01931 19.0176 8.84248C18.6766 9.66566 18.5011 10.5479 18.5011 11.4389C18.5011 11.8234 18.5102 12.6783 18.7047 13.3839C18.7318 13.4918 18.7666 13.5976 18.8087 13.7005ZM41.1172 13.7005H54.3793C54.4209 13.5974 54.4557 13.4916 54.4834 13.3839C54.6779 12.6783 54.6869 11.8234 54.6869 11.4389C54.6869 9.63947 53.9721 7.91372 52.6997 6.64132C51.4273 5.36892 49.7015 4.65409 47.9021 4.65409C46.1026 4.65409 44.3769 5.36892 43.1045 6.64132C41.8321 7.91372 41.1172 9.63947 41.1172 11.4389V13.7005ZM68.2566 31.7934V65.7176C68.2566 67.5171 67.5418 69.2429 66.2694 70.5153C64.997 71.7877 63.2712 72.5025 61.4718 72.5025H41.1172V31.7934H68.2566ZM11.7163 72.5025C9.91682 72.5025 8.19107 71.7877 6.91866 70.5153C5.64626 69.2429 4.93143 67.5171 4.93143 65.7176V31.7934H32.0708V72.5025H11.7163Z" fill="#707078"/>
</g>
<rect x="0.908203" y="0.630859" width="71.3716" height="71.3716" rx="35.6858"/>
</g>
<defs>
<clipPath id="clip0_83_308">
<rect x="0.408203" y="0.130859" width="72.3716" height="72.3716" rx="36.1858" fill="white"/>
</clipPath>
</defs>
</svg>
