<svg width="240" height="105" viewBox="0 0 240 105" fill="none" xmlns="http://www.w3.org/2000/svg">
<g id="Group 1">
<path id="Vector" d="M87.9972 48.7945C97.6423 50.5554 106.086 48.5613 106.856 44.3409C107.627 40.1204 100.432 35.2717 90.7872 33.5109C81.1421 31.7502 72.6987 33.7442 71.9282 37.9646C71.1578 42.185 78.3521 47.0337 87.9972 48.7945Z" fill="#2BBFAF"/>
<path id="Vector_2" d="M66.6171 33.3593C69.8674 33.5874 73.01 26.5381 73.6363 17.6142C74.2626 8.69033 72.1354 1.27118 68.8851 1.04307C65.6348 0.814963 62.4922 7.86428 61.866 16.7882C61.2397 25.712 63.3669 33.1312 66.6171 33.3593Z" fill="#2BBFAF"/>
<path id="Vector_3" d="M22.6967 39.1073C16.6771 44.3373 12.9817 51.7445 12.4236 59.6989C11.8652 67.6537 14.4898 75.5043 19.7199 81.5238C30.6111 94.0591 67.4283 94.906 60.9514 79.6189C53.8443 62.8476 64.8659 42.689 62.8152 39.715C53.3902 26.0438 35.2316 28.2164 22.6967 39.1073Z" fill="#B1262D"/>
<g id="SPOS">
<path d="M90.1639 87.7168C84.725 87.7168 80.2284 86.4559 76.6738 83.9342C73.1621 81.3698 71.2564 77.63 70.9566 72.7148H86.1169C86.331 75.322 87.4873 76.6256 89.5858 76.6256C90.3566 76.6256 90.999 76.4546 91.5129 76.1127C92.0696 75.728 92.348 75.151 92.348 74.3817C92.348 73.3132 91.7699 72.4584 90.6136 71.8173C89.4573 71.1334 87.6586 70.3641 85.2175 69.5093C82.3054 68.4835 79.8857 67.4791 77.9586 66.496C76.0743 65.513 74.4469 64.0812 73.0765 62.2006C71.7061 60.32 71.0423 57.9052 71.0851 54.9561C71.0851 52.007 71.8345 49.5066 73.3334 47.4551C74.8751 45.3608 76.9522 43.7794 79.5646 42.7109C82.2197 41.6424 85.1961 41.1081 88.4937 41.1081C94.061 41.1081 98.4721 42.3903 101.727 44.9548C105.024 47.5192 106.759 51.1308 106.93 55.7895H91.5771C91.5343 54.5073 91.2131 53.5884 90.6136 53.0327C90.014 52.4771 89.286 52.1993 88.4295 52.1993C87.8299 52.1993 87.3374 52.413 86.952 52.8404C86.5665 53.2251 86.3738 53.7807 86.3738 54.5073C86.3738 55.5331 86.9306 56.3879 88.044 57.0717C89.2003 57.7128 91.0204 58.5035 93.5043 59.4438C96.3736 60.5124 98.729 61.5381 100.571 62.5212C102.455 63.5042 104.082 64.8719 105.453 66.6243C106.823 68.3766 107.508 70.5778 107.508 73.2277C107.508 76.0058 106.823 78.5062 105.453 80.7287C104.082 82.9085 102.091 84.6181 99.4785 85.8576C96.8661 87.097 93.7612 87.7168 90.1639 87.7168Z" fill="#B1262D"/>
<path d="M149.713 57.4564C149.713 60.32 149.049 62.9272 147.722 65.2779C146.394 67.5859 144.424 69.4238 141.812 70.7915C139.242 72.1592 136.116 72.843 132.433 72.843H126.78V87.268H112.519V41.8774H132.433C138 41.8774 142.261 43.2879 145.216 46.1088C148.214 48.9296 149.713 52.7122 149.713 57.4564ZM130.827 61.6236C133.782 61.6236 135.259 60.2345 135.259 57.4564C135.259 54.6783 133.782 53.2892 130.827 53.2892H126.78V61.6236H130.827Z" fill="#B1262D"/>
<path d="M176.398 87.7168C172.116 87.7168 168.176 86.7124 164.579 84.7036C161.024 82.6948 158.198 79.9166 156.099 76.3691C154.001 72.8217 152.951 68.8254 152.951 64.3804C152.951 59.9354 154.001 55.9391 156.099 52.3916C158.198 48.8442 161.024 46.0874 164.579 44.1213C168.176 42.1125 172.116 41.1081 176.398 41.1081C180.681 41.1081 184.6 42.1125 188.154 44.1213C191.709 46.0874 194.514 48.8442 196.569 52.3916C198.668 55.9391 199.717 59.9354 199.717 64.3804C199.717 68.8254 198.668 72.8217 196.569 76.3691C194.514 79.9166 191.687 82.6948 188.09 84.7036C184.535 86.7124 180.638 87.7168 176.398 87.7168ZM176.398 74.4458C179.225 74.4458 181.409 73.5483 182.951 71.7531C184.493 69.9153 185.263 67.4577 185.263 64.3804C185.263 61.2603 184.493 58.8027 182.951 57.0076C181.409 55.1698 179.225 54.2508 176.398 54.2508C173.529 54.2508 171.324 55.1698 169.782 57.0076C168.24 58.8027 167.469 61.2603 167.469 64.3804C167.469 67.4577 168.24 69.9153 169.782 71.7531C171.324 73.5483 173.529 74.4458 176.398 74.4458Z" fill="#B1262D"/>
<path d="M222.656 87.7168C217.217 87.7168 212.72 86.4559 209.166 83.9342C205.654 81.3698 203.748 77.63 203.448 72.7148H218.609C218.823 75.322 219.979 76.6256 222.078 76.6256C222.848 76.6256 223.491 76.4546 224.005 76.1127C224.561 75.728 224.84 75.151 224.84 74.3817C224.84 73.3132 224.262 72.4584 223.105 71.8173C221.949 71.1334 220.15 70.3641 217.709 69.5093C214.797 68.4835 212.378 67.4791 210.45 66.496C208.566 65.513 206.939 64.0812 205.568 62.2006C204.198 60.32 203.534 57.9052 203.577 54.9561C203.577 52.007 204.326 49.5066 205.825 47.4551C207.367 45.3608 209.444 43.7794 212.056 42.7109C214.712 41.6424 217.688 41.1081 220.985 41.1081C226.553 41.1081 230.964 42.3903 234.219 44.9548C237.516 47.5192 239.251 51.1308 239.422 55.7895H224.069C224.026 54.5073 223.705 53.5884 223.105 53.0327C222.506 52.4771 221.778 52.1993 220.921 52.1993C220.322 52.1993 219.829 52.413 219.444 52.8404C219.058 53.2251 218.866 53.7807 218.866 54.5073C218.866 55.5331 219.422 56.3879 220.536 57.0717C221.692 57.7128 223.512 58.5035 225.996 59.4438C228.865 60.5124 231.221 61.5381 233.062 62.5212C234.947 63.5042 236.574 64.8719 237.944 66.6243C239.315 68.3766 240 70.5778 240 73.2277C240 76.0058 239.315 78.5062 237.944 80.7287C236.574 82.9085 234.583 84.6181 231.97 85.8576C229.358 87.097 226.253 87.7168 222.656 87.7168Z" fill="#B1262D"/>
</g>
</g>
</svg>
