<svg width="12" height="32" viewBox="0 0 12 32" fill="none" xmlns="http://www.w3.org/2000/svg">
<g id="fa-solid:male" clip-path="url(#clip0_233_1367)">
<path id="Vector" d="M6 0C8.20913 0 10 1.79087 10 4C10 6.20913 8.20913 8 6 8C3.79087 8 2 6.20913 2 4C2 1.79087 3.79087 0 6 0ZM9 9H8.29C6.87056 9.65269 5.19063 9.68087 3.71 9H3C1.34312 9 0 10.3431 0 12V20.5C0 21.3284 0.671562 22 1.5 22H2.5V30.5C2.5 31.3284 3.17156 32 4 32H8C8.82844 32 9.5 31.3284 9.5 30.5V22H10.5C11.3284 22 12 21.3284 12 20.5V12C12 10.3431 10.6569 9 9 9Z" fill="black"/>
</g>
<defs>
<clipPath id="clip0_233_1367">
<rect width="12" height="32" fill="white"/>
</clipPath>
</defs>
</svg>
