<svg width="64" height="64" viewBox="0 0 64 64" fill="none" xmlns="http://www.w3.org/2000/svg">
<g id="uiw:more">
<g clip-path="url(#clip0_56_46)">
<path id="Vector" fill-rule="evenodd" clip-rule="evenodd" d="M8 24C10.1217 24 12.1566 24.8429 13.6569 26.3431C15.1571 27.8434 16 29.8783 16 32C16 34.1217 15.1571 36.1566 13.6569 37.6569C12.1566 39.1571 10.1217 40 8 40C5.87827 40 3.84344 39.1571 2.34315 37.6569C0.842855 36.1566 0 34.1217 0 32C0 29.8783 0.842855 27.8434 2.34315 26.3431C3.84344 24.8429 5.87827 24 8 24ZM56 24C58.1217 24 60.1566 24.8429 61.6569 26.3431C63.1571 27.8434 64 29.8783 64 32C64 34.1217 63.1571 36.1566 61.6569 37.6569C60.1566 39.1571 58.1217 40 56 40C53.8783 40 51.8434 39.1571 50.3431 37.6569C48.8429 36.1566 48 34.1217 48 32C48 29.8783 48.8429 27.8434 50.3431 26.3431C51.8434 24.8429 53.8783 24 56 24ZM32.7232 24C34.8449 24 36.8798 24.8429 38.3801 26.3431C39.8803 27.8434 40.7232 29.8783 40.7232 32C40.7232 34.1217 39.8803 36.1566 38.3801 37.6569C36.8798 39.1571 34.8449 40 32.7232 40C30.6015 40 28.5666 39.1571 27.0663 37.6569C25.5661 36.1566 24.7232 34.1217 24.7232 32C24.7232 29.8783 25.5661 27.8434 27.0663 26.3431C28.5666 24.8429 30.6015 24 32.7232 24Z" fill="#465568"/>
</g>
<rect x="0.5" y="0.5" width="63" height="63" rx="31.5"/>
</g>
<defs>
<clipPath id="clip0_56_46">
<rect width="64" height="64" rx="32" fill="white"/>
</clipPath>
</defs>
</svg>
