<svg width="32" height="32" viewBox="0 0 32 32" fill="none" xmlns="http://www.w3.org/2000/svg">
<g id="bx:time">
<path id="Vector" d="M16 2.6665C8.64801 2.6665 2.66667 8.64784 2.66667 15.9998C2.66667 23.3518 8.64801 29.3332 16 29.3332C23.352 29.3332 29.3333 23.3518 29.3333 15.9998C29.3333 8.64784 23.352 2.6665 16 2.6665ZM16 26.6665C10.1187 26.6665 5.33334 21.8812 5.33334 15.9998C5.33334 10.1185 10.1187 5.33317 16 5.33317C21.8813 5.33317 26.6667 10.1185 26.6667 15.9998C26.6667 21.8812 21.8813 26.6665 16 26.6665Z" fill="#707078"/>
<path id="Vector_2" d="M17.3333 9.3335H14.6667V17.3335H22.6667V14.6668H17.3333V9.3335Z" fill="#707078"/>
<line id="Line 1" x1="29.3851" y1="6.44277" x2="4.38506" y2="30.4428" stroke="#707078" stroke-width="4"/>
</g>
</svg>
