<svg width="64" height="64" viewBox="0 0 64 64" fill="none" xmlns="http://www.w3.org/2000/svg">
<g id="fontisto:persons">
<g clip-path="url(#clip0_56_42)">
<path id="Vector" d="M54.9243 46.12C52.4377 42.5033 48.8874 39.9129 44.8591 38.776L44.7335 38.7467L41.8314 44.0534C41.8294 44.7599 41.5695 45.437 41.1083 45.9366C40.6471 46.4363 40.0221 46.7179 39.3699 46.72C38.016 46.72 36.9083 45.52 35.616 41.9893V41.904C35.616 41.02 35.2918 40.1721 34.7148 39.547C34.1378 38.9219 33.3551 38.5707 32.5391 38.5707C31.723 38.5707 30.9404 38.9219 30.3634 39.547C29.7863 40.1721 29.4622 41.02 29.4622 41.904V41.992V41.9867C28.0837 45.52 26.9662 46.7173 25.6148 46.7173C24.9625 46.7152 24.3376 46.4336 23.8764 45.934C23.4151 45.4343 23.1552 44.7573 23.1532 44.0507L20.3422 38.7333C16.2861 39.851 12.7034 42.4341 10.1858 46.056L10.1514 46.1067C9.15348 47.8748 8.59781 49.8939 8.53908 51.9653V51.984C8.55138 52.384 8.53908 52.8507 8.53908 53.3173V58.6507C8.53908 60.0652 9.05776 61.4217 9.98101 62.4219C10.9043 63.4221 12.1565 63.984 13.4622 63.984H51.616C52.9217 63.984 54.1739 63.4221 55.0971 62.4219C56.0204 61.4217 56.5391 60.0652 56.5391 58.6507V53.3173C56.5391 52.8533 56.5268 52.384 56.5391 51.984C56.4771 49.889 55.912 47.8477 54.8997 46.0614L54.9268 46.1147L54.9243 46.12ZM19.6135 14.1067C19.6135 21.8934 24.0935 33.3334 32.5366 33.3334C40.832 33.3334 45.4597 21.8934 45.4597 14.1067V13.9333C45.4597 12.0948 45.1254 10.2743 44.476 8.57578C43.8265 6.87722 42.8746 5.33388 41.6746 4.03385C40.4746 2.73383 39.05 1.7026 37.4821 0.999036C35.9142 0.29547 34.2337 -0.0666504 32.5366 -0.0666504C30.8395 -0.0666504 29.1591 0.29547 27.5912 0.999036C26.0233 1.7026 24.5986 2.73383 23.3986 4.03385C22.1986 5.33388 21.2467 6.87722 20.5972 8.57578C19.9478 10.2743 19.6135 12.0948 19.6135 13.9333V14.1147V14.1067ZM47.2665 18.6934C47.2665 23.7654 50.1858 31.2213 55.6849 31.2213C61.088 31.2213 64.1034 23.768 64.1034 18.6934V18.5547C64.1034 16.1352 63.2162 13.8148 61.637 12.104C60.0577 10.3932 57.9158 9.43202 55.6825 9.43202C53.4491 9.43202 51.3072 10.3932 49.728 12.104C48.1487 13.8148 47.2615 16.1352 47.2615 18.5547V18.7014V18.6934H47.2665ZM0.00492308 22.96C0.00492308 28.032 2.92431 35.488 8.42338 35.488C13.8265 35.488 16.8418 28.0347 16.8418 22.96V22.8213C16.8418 20.4019 15.9546 18.0815 14.3754 16.3707C12.7962 14.6598 10.6543 13.6987 8.42092 13.6987C6.18756 13.6987 4.04566 14.6598 2.46643 16.3707C0.887202 18.0815 0 20.4019 0 22.8213L0 22.968V22.96H0.00492308Z" fill="#465568"/>
</g>
<rect x="0.5" y="0.5" width="63" height="63" rx="31.5"/>
</g>
<defs>
<clipPath id="clip0_56_42">
<rect width="64" height="64" rx="32" fill="white"/>
</clipPath>
</defs>
</svg>
