<svg width="64" height="64" viewBox="0 0 64 64" fill="none" xmlns="http://www.w3.org/2000/svg">
<g id="ri:price-tag-3-fill">
<path id="Vector" d="M29.0774 5.59998L55.4774 9.37064L59.248 35.7706L34.7334 60.2826C34.2333 60.7826 33.5551 61.0634 32.848 61.0634C32.1409 61.0634 31.4628 60.7826 30.9627 60.2826L4.5627 33.8826C4.06359 33.3827 3.78326 32.7051 3.78326 31.9986C3.78326 31.2922 4.06359 30.6146 4.5627 30.1146L29.0774 5.59998ZM36.6214 28.2266C37.1133 28.736 37.7019 29.1423 38.3525 29.4219C39.0032 29.7014 39.7031 29.8485 40.4112 29.8546C41.1194 29.8608 41.8217 29.7259 42.4771 29.4577C43.1326 29.1895 43.728 28.7935 44.2288 28.2928C44.7296 27.792 45.1256 27.1965 45.3937 26.5411C45.6619 25.8856 45.7969 25.1833 45.7907 24.4752C45.7845 23.767 45.6374 23.0672 45.3579 22.4165C45.0784 21.7658 44.6721 21.1773 44.1627 20.6853C43.1568 19.7138 41.8096 19.1762 40.4112 19.1884C39.0128 19.2005 37.6752 19.7614 36.6863 20.7503C35.6975 21.7391 35.1366 23.0768 35.1244 24.4752C35.1123 25.8736 35.6499 27.2208 36.6214 28.2266Z" fill="#465568"/>
<rect x="0.5" y="0.5" width="63" height="63" rx="31.5"/>
</g>
</svg>
