<svg width="64" height="64" viewBox="0 0 64 64" fill="none" xmlns="http://www.w3.org/2000/svg">
<g id="mdi:users-add" opacity="0.64">
<path id="Vector" d="M50.6667 45.3333V50.6666H18.6667V45.3333C18.6667 45.3333 18.6667 34.6666 34.6667 34.6666C50.6667 34.6666 50.6667 45.3333 50.6667 45.3333ZM42.6667 21.3333C42.6667 19.7511 42.1975 18.2043 41.3184 16.8888C40.4394 15.5732 39.1899 14.5478 37.7281 13.9423C36.2663 13.3368 34.6578 13.1784 33.1059 13.487C31.5541 13.7957 30.1286 14.5576 29.0098 15.6765C27.891 16.7953 27.1291 18.2207 26.8204 19.7726C26.5117 21.3244 26.6701 22.933 27.2756 24.3948C27.8811 25.8566 28.9065 27.106 30.2221 27.9851C31.5377 28.8641 33.0844 29.3333 34.6667 29.3333C36.7884 29.3333 38.8232 28.4905 40.3235 26.9902C41.8238 25.4899 42.6667 23.455 42.6667 21.3333ZM51.2 34.8267C52.6577 36.1715 53.8329 37.7932 54.657 39.5971C55.4811 41.401 55.9377 43.351 56 45.3333V50.6666H64V45.3333C64 45.3333 64 36.1333 51.2 34.8267ZM48 13.3333C47.1943 13.3338 46.3936 13.4598 45.6267 13.7066C47.1868 15.9439 48.0233 18.6058 48.0233 21.3333C48.0233 24.0608 47.1868 26.7227 45.6267 28.96C46.3936 29.2069 47.1943 29.3328 48 29.3333C50.1217 29.3333 52.1566 28.4905 53.6569 26.9902C55.1571 25.4899 56 23.455 56 21.3333C56 19.2116 55.1571 17.1768 53.6569 15.6765C52.1566 14.1762 50.1217 13.3333 48 13.3333ZM21.3333 26.6666H13.3333V18.6666H8V26.6666H0V32H8V40H13.3333V32H21.3333V26.6666Z" fill="#465568"/>
<rect x="0.5" y="0.5" width="63" height="63" rx="31.5"/>
</g>
</svg>
